# xmcd
#
# Track frame offsets:
#	150
#	12763
#	35714
#	52596
#	75719
#	95631
#	113506
#	131729
#	152426
#	170671
#	191739
#	209261
#	228586
#	248011
#	266829
#	285954
#	304631
#
# Disc length: 4283 seconds
#
# Revision: 882844381
# Processed by: cddbd v1.5.2PL0 Copyright (c) Steve Scherf et al.
# Submitted via: EZCDAudioConverter 8.0.4.1
#
DISCID=db10b911
DTITLE=Compilation - 2002 - Les Plus Belles Victoires De La Musique
DYEAR=2002
DGENRE=Variété
TTITLE0=Henri Salvador - Jardin D'hiver
TTITLE1=Hélène Ségara - Elle, Tu L'aimes
TTITLE2=Isabelle Boulay - Parle-Moi
TTITLE3=Daniel Lévi - L'envie D'aimer
TTITLE4=Zebda - Tomber La Chemise
TTITLE5=M- - Je Dis Aime
TTITLE6=Johnny Hallyday - Un Jour Viendra
TTITLE7=Notre-Dame De Paris Cast - Belle
TTITLE8=Axelle Red - Parce Que C'est Toi
TTITLE9=Florent Pagny - Savoir Aimer
TTITLE10=Zazie - Zen
TTITLE11=Lara Fabian - Tout
TTITLE12=Cheb Khaled - Aicha
TTITLE13=Barbara - Vivant Poème
TTITLE14=Céline Dion - Pour Que Tu M'aimes Encore
TTITLE15=Enzo Enzo - Juste Quelqu'un De Bien
TTITLE16=Gérald De Palmas - Sur La Route
EXTD=
EXTT0=
EXTT1=
EXTT2=
EXTT3=
EXTT4=
EXTT5=
EXTT6=
EXTT7=
EXTT8=
EXTT9=
EXTT10=
EXTT11=
EXTT12=
EXTT13=
EXTT14=
EXTT15=
EXTT16=
PLAYORDER=
